<?xml version="1.0" standalone="no"?>
<!DOCTYPE svg PUBLIC "-//W3C//DTD SVG 20010904//EN"
 "http://www.w3.org/TR/2001/REC-SVG-20010904/DTD/svg10.dtd">
<svg version="1.0" xmlns="http://www.w3.org/2000/svg"
 width="2322.000000pt" height="865.000000pt" viewBox="0 0 2322.000000 865.000000"
 preserveAspectRatio="xMidYMid meet">

<g transform="translate(0.000000,865.000000) scale(0.100000,-0.100000)"
fill="#000000" stroke="none">
<path d="M11306 8379 c2 -4 -1 -9 -8 -11 -7 -3 -8 -7 -2 -11 5 -3 15 2 21 12
9 14 8 18 -3 18 -7 0 -11 -4 -8 -8z"/>
<path d="M11454 8375 c-19 -15 -19 -15 1 -8 17 6 18 5 7 -9 -15 -19 -3 -31 18
-17 10 5 10 9 3 9 -6 0 -10 9 -8 20 5 24 4 24 -21 5z"/>
<path d="M11501 8377 c-8 -10 -7 -14 2 -14 8 0 14 6 14 14 0 7 -1 13 -2 13 -2
0 -8 -6 -14 -13z"/>
<path d="M12165 8381 c-3 -5 -2 -12 3 -15 5 -3 9 1 9 9 0 17 -3 19 -12 6z"/>
<path d="M12205 8380 c-3 -5 -1 -10 4 -10 6 0 11 5 11 10 0 6 -2 10 -4 10 -3
0 -8 -4 -11 -10z"/>
<path d="M12328 8372 c-11 -15 -11 -15 3 -5 12 10 18 10 27 1 6 -6 14 -10 16
-7 3 3 -3 10 -14 16 -15 10 -21 9 -32 -5z"/>
<path d="M11130 8364 c-11 -12 -11 -15 1 -12 8 2 13 -2 12 -7 -1 -6 11 -11 26
-10 19 0 27 4 24 13 -4 10 -8 10 -21 0 -13 -11 -14 -9 -9 12 4 14 4 19 1 13
-3 -7 -10 -13 -15 -13 -6 0 -7 5 -4 10 10 16 -1 12 -15 -6z"/>
<path d="M11027 8354 c4 -11 3 -15 -5 -10 -6 3 -13 2 -16 -3 -4 -5 2 -8 11 -7
20 3 28 21 14 31 -7 4 -8 0 -4 -11z"/>
<path d="M10975 8350 c3 -5 8 -10 11 -10 2 0 4 5 4 10 0 6 -5 10 -11 10 -5 0
-7 -4 -4 -10z"/>
<path d="M10836 8342 c-2 -4 4 -8 14 -8 10 0 16 4 14 8 -3 4 -9 8 -14 8 -5 0
-11 -4 -14 -8z"/>
<path d="M10666 8308 c-14 -19 -20 -18 -18 2 1 11 -45 5 -61 -8 -8 -7 -18 -9
-21 -4 -6 9 -40 8 -94 -4 -57 -12 -78 -15 -104 -16 -29 -2 -41 -28 -13 -28 8
0 15 6 15 13 0 8 4 7 10 -3 7 -11 10 -11 10 -2 0 7 4 11 9 8 5 -4 12 0 14 6 4
10 6 10 6 0 1 -7 6 -10 11 -7 6 3 10 1 10 -5 0 -7 -7 -9 -15 -6 -9 3 -18 -1
-21 -9 -5 -12 -24 -15 -83 -15 -75 0 -78 -1 -100 -31 -22 -30 -22 -30 -2 -19
12 6 21 15 21 20 0 6 35 10 80 10 64 0 80 -3 80 -15 0 -12 -16 -15 -85 -15
-69 0 -85 -3 -85 -15 0 -18 5 -18 31 -5 10 6 19 7 19 2 0 -5 10 -14 23 -20 20
-10 20 -11 2 -9 -11 1 -23 6 -26 11 -4 5 -15 5 -25 1 -11 -5 -23 -7 -27 -6 -5
1 -5 -4 -1 -10 5 -9 2 -10 -10 -6 -10 4 -15 3 -11 -3 3 -6 1 -10 -4 -10 -6 0
-11 9 -11 20 0 14 -5 18 -17 14 -17 -5 -17 -5 0 6 9 6 17 17 17 24 0 8 7 16
15 20 8 3 15 11 15 17 0 9 -3 9 -14 0 -8 -7 -22 -8 -35 -3 l-21 7 22 14 c18
11 20 11 15 -2 -5 -13 -2 -13 24 0 16 8 29 19 29 24 0 6 -6 7 -12 2 -7 -4 -20
-8 -28 -8 -16 -1 -80 -33 -80 -40 0 -3 3 -4 8 -4 4 1 16 0 27 -1 15 -2 12 -4
-10 -10 l-30 -8 33 -1 c18 0 31 -5 28 -10 -9 -14 -61 3 -61 20 0 9 -9 13 -25
11 -22 -2 -23 -1 -7 8 9 6 20 9 25 7 4 -3 14 2 22 11 13 14 12 15 -5 8 -11 -4
-33 -10 -50 -13 -16 -3 -35 -10 -41 -15 -6 -4 -20 -6 -30 -2 -16 5 -15 3 3
-13 l23 -18 -24 0 c-13 0 -24 4 -23 10 3 12 -37 13 -93 2 -34 -7 -55 -20 -86
-53 -23 -24 -39 -46 -35 -50 3 -4 0 -4 -7 0 -9 6 -10 11 -3 20 6 7 8 16 4 20
-4 4 0 4 9 1 9 -4 18 0 21 9 7 17 -8 30 -23 21 -6 -4 -27 -9 -47 -11 -20 -3
-42 -9 -49 -15 -6 -5 -16 -9 -20 -8 -24 4 -43 -2 -40 -13 1 -7 1 -10 -1 -5 -7
11 -37 8 -76 -8 -19 -8 -36 -13 -38 -12 -2 1 1 -3 7 -8 8 -8 7 -14 -4 -25 -14
-13 -15 -12 -10 2 4 10 1 19 -8 22 -23 9 -34 7 -34 -4 0 -5 8 -7 18 -3 14 5
14 3 -2 -9 -19 -15 -19 -16 3 -28 17 -9 20 -15 12 -23 -16 -16 -14 -24 9 -30
10 -3 21 0 24 7 2 6 3 1 3 -11 -1 -22 -17 -34 -17 -13 0 6 -6 10 -13 10 -15 0
-48 36 -40 44 3 3 -2 8 -11 12 -9 3 -16 10 -16 16 0 5 4 7 9 3 5 -3 12 -1 15
4 4 5 2 12 -3 15 -5 4 -12 2 -16 -4 -4 -6 -11 -8 -16 -5 -5 4 -15 3 -21 -1 -7
-5 -19 -9 -28 -10 -26 -4 -45 -9 -55 -15 -15 -9 -69 -23 -79 -20 -5 1 -6 -4
-3 -12 3 -7 0 -14 -6 -15 -7 0 -25 -3 -42 -6 -23 -5 -27 -4 -15 4 12 9 10 10
-10 5 -36 -10 -48 -24 -30 -35 12 -7 10 -9 -7 -7 -12 0 -19 5 -17 9 6 9 -58
-2 -66 -11 -3 -3 -12 -7 -20 -8 -31 -4 -175 -57 -182 -67 -4 -6 -8 -8 -8 -4 0
3 -21 -2 -47 -11 -29 -11 -47 -23 -45 -31 2 -10 0 -11 -10 -3 -15 12 -93 -18
-81 -32 5 -4 2 -5 -5 -1 -13 8 -82 -13 -82 -25 0 -3 -14 -9 -30 -13 -17 -3
-54 -17 -84 -31 -29 -14 -58 -25 -65 -25 -7 0 -9 -5 -5 -12 4 -7 3 -8 -4 -4
-13 8 -172 -62 -172 -76 0 -5 -4 -6 -10 -3 -10 6 -71 -21 -81 -37 -3 -5 -9 -9
-13 -8 -16 5 -67 -24 -62 -35 2 -6 -2 -12 -10 -12 -7 0 -11 4 -7 9 7 13 -60
-22 -68 -34 -3 -5 -10 -9 -15 -9 -16 1 -44 -10 -44 -18 0 -4 -6 -8 -12 -8 -17
-1 -285 -149 -304 -168 -9 -8 -21 -15 -27 -15 -17 -1 -138 -76 -132 -82 3 -2
-1 -5 -8 -5 -11 0 -110 -58 -140 -83 -7 -6 -73 -50 -147 -98 -413 -271 -896
-683 -1254 -1070 -83 -90 -152 -167 -154 -171 -2 -5 -21 -27 -42 -50 -22 -23
-84 -96 -138 -164 -526 -653 -921 -1367 -1217 -2201 -31 -88 -59 -172 -62
-188 -5 -27 -7 -28 -74 -28 l-69 0 0 -390 c0 -214 3 -390 8 -390 4 0 32 32 62
71 110 142 277 252 451 299 l39 11 0 199 0 200 -85 0 c-58 0 -85 4 -85 12 0 6
33 111 74 232 434 1293 1184 2374 2226 3209 69 55 124 103 123 107 -1 4 3 7
10 7 18 0 212 144 209 155 -1 5 1 7 6 4 10 -6 245 148 237 156 -3 2 1 5 7 5
17 0 118 62 118 72 0 4 6 8 13 8 6 0 49 23 95 51 46 29 88 52 93 52 5 0 12 7
15 15 4 8 11 12 17 8 7 -4 8 0 3 13 -5 14 -4 16 4 7 9 -8 21 -6 49 10 20 12
38 24 41 27 3 3 12 6 20 8 8 2 50 24 94 48 43 24 82 44 88 44 5 0 6 5 2 12 -4
6 -3 8 3 5 15 -9 166 66 156 77 -4 5 -2 6 5 2 18 -11 185 72 176 87 -5 9 -4 9
6 0 10 -9 23 -7 59 10 25 12 50 28 54 35 5 7 13 10 18 6 11 -7 90 24 100 39 3
5 9 8 13 8 6 -1 8 -1 24 4 51 14 61 18 57 25 -3 5 5 6 17 2 17 -4 20 -2 15 11
-7 19 8 32 19 16 5 -8 3 -9 -6 -4 -8 5 -11 4 -7 -3 11 -16 68 9 80 35 9 19 11
20 25 7 12 -13 16 -13 23 -2 5 7 9 9 9 5 0 -4 9 -3 21 3 11 7 32 14 47 16 33
6 44 13 37 24 -3 5 0 12 6 16 8 4 9 3 5 -4 -5 -8 1 -11 18 -10 18 2 22 5 15
14 -7 9 -4 16 13 24 21 10 21 10 5 -3 -15 -13 -16 -15 -2 -21 8 -3 15 -1 15 4
0 5 10 14 23 20 22 11 22 11 2 -6 -20 -16 -19 -16 7 -10 15 3 40 11 55 18 15
6 34 12 41 14 41 8 45 14 28 32 -9 10 -16 23 -16 28 0 5 5 1 11 -9 6 -9 15
-15 20 -11 5 3 9 2 8 -3 -3 -20 2 -25 16 -13 8 7 12 17 8 23 -3 6 -1 7 6 3 6
-4 9 -11 6 -15 -2 -5 13 -3 35 2 21 6 37 14 34 18 -2 4 6 5 18 1 11 -3 19 -1
16 4 -3 5 8 10 26 11 17 1 45 7 61 14 17 7 34 11 39 10 4 -1 14 3 20 9 7 5 15
8 17 5 3 -2 23 1 45 7 21 6 44 10 49 9 5 -1 6 1 2 6 -5 4 -13 9 -18 9 -5 1
-14 2 -20 3 -5 0 -7 6 -3 12 4 8 9 7 15 -2 7 -11 9 -11 9 1 0 13 2 13 9 1 8
-13 12 -13 27 0 11 9 15 9 10 2 -4 -8 -1 -13 9 -13 10 0 13 5 9 13 -5 8 -2 8
9 -2 9 -7 17 -9 17 -4 0 6 11 9 25 8 14 -2 27 1 30 5 3 5 13 6 21 3 10 -4 14
-1 12 8 -1 8 2 14 7 14 6 0 9 -3 8 -7 -2 -5 0 -8 3 -8 9 0 98 21 114 27 23 9
43 13 68 16 13 1 20 7 17 15 -3 10 0 10 16 1 13 -7 19 -7 15 -1 -3 6 -2 13 4
17 5 3 10 2 10 -3 0 -5 7 -9 15 -9 10 0 15 8 13 21 -3 19 2 21 45 21 26 1 47
-3 47 -8 0 -4 -5 -5 -12 -1 -7 4 -8 3 -4 -4 4 -7 1 -12 -8 -12 -8 0 -18 5 -21
10 -3 6 -16 10 -28 10 -21 -1 -21 -1 -3 -11 15 -9 16 -13 5 -20 -14 -10 29 -3
61 8 8 3 22 7 30 9 46 9 55 13 52 24 -1 6 3 10 10 7 7 -2 12 -9 11 -15 -2 -7
8 -8 27 -2 44 13 45 13 44 31 -1 11 7 15 27 14 16 -1 32 -5 36 -10 5 -4 2 -5
-4 -1 -8 4 -13 2 -13 -5 0 -8 -4 -8 -15 1 -10 9 -15 9 -15 1 0 -11 15 -16 35
-11 9 2 44 7 102 13 44 4 31 13 -20 12 -46 0 -52 2 -55 23 -3 17 2 22 20 22
22 1 22 1 5 14 -12 10 -15 16 -7 21 6 4 9 13 6 21 -3 8 -1 14 4 14 6 0 10 -6
10 -12 0 -7 5 -5 11 5 11 20 49 23 49 5 0 -10 2 -10 8 0 7 9 13 8 27 -8 10
-11 23 -20 29 -20 6 0 5 4 -3 9 -11 7 -9 10 9 16 16 5 19 10 10 15 -8 5 -9 10
-1 14 12 8 51 -10 51 -24 0 -13 -17 -13 -22 0 -2 6 -8 2 -15 -9 -10 -16 -9
-19 5 -16 9 2 20 4 24 4 7 1 50 71 43 71 -2 0 -11 -10 -19 -22z m-96 -29 c0
-6 -4 -7 -10 -4 -5 3 -10 11 -10 16 0 6 5 7 10 4 6 -3 10 -11 10 -16z m-510
-79 c0 -5 8 -10 18 -11 12 0 10 -3 -7 -10 -25 -10 -46 5 -35 23 7 11 24 10 24
-2z m-96 -21 c3 -3 -5 -5 -19 -5 -13 0 -22 3 -19 7 4 8 30 6 38 -2z m369 -29
c5 -18 4 -18 -19 -3 -29 19 -30 23 -5 23 10 0 21 -9 24 -20z m-420 -7 c-7 -2
-19 -2 -25 0 -7 3 -2 5 12 5 14 0 19 -2 13 -5z m-174 -39 c-8 -10 -14 -11 -24
-1 -19 17 2 42 21 26 11 -9 11 -15 3 -25z m241 16 c0 -5 -9 -10 -19 -10 -11 0
-28 -3 -38 -6 -16 -6 -16 -5 2 9 22 18 55 22 55 7z m-320 -14 c0 -2 -7 -7 -16
-10 -8 -3 -12 -2 -9 4 6 10 25 14 25 6z m165 -6 c4 -6 -1 -7 -11 -3 -10 4 -15
2 -11 -4 3 -5 0 -10 -8 -10 -11 0 -12 4 -4 14 14 15 26 17 34 3z m59 -28 c4
-8 4 -18 -2 -24 -6 -6 -12 -6 -17 3 -5 8 -4 10 3 5 7 -4 12 -2 12 3 0 6 -7 11
-15 11 -24 0 -30 -4 -29 -18 2 -10 -1 -10 -12 -1 -12 10 -12 13 3 24 21 15 45
14 57 -3z m31 8 c3 -6 -1 -7 -9 -4 -18 7 -21 14 -7 14 6 0 13 -4 16 -10z m81
1 c-6 -9 -46 -22 -46 -15 0 3 10 9 23 14 29 11 29 11 23 1z m-196 -14 c0 -2
-10 -12 -22 -23 l-23 -19 19 23 c18 21 26 27 26 19z m127 -13 c-3 -3 -12 -4
-19 -1 -8 3 -5 6 6 6 11 1 17 -2 13 -5z m-526 -37 c-8 -8 -11 -8 -11 0 0 12
-28 10 -53 -2 -6 -4 -4 0 6 9 11 8 27 13 38 11 10 -2 19 2 20 8 0 8 2 7 6 -1
3 -8 0 -19 -6 -25z m161 -49 c-6 -6 -12 -6 -17 3 -5 8 -4 10 3 5 7 -4 12 -2
12 3 0 6 -8 11 -17 11 -15 0 -16 2 -3 10 18 11 38 -16 22 -32z m-72 -15 c0 -3
-9 -3 -20 0 -11 3 -20 0 -20 -6 0 -6 -3 -8 -6 -4 -12 11 6 25 26 20 11 -3 20
-8 20 -10z m-285 -5 c4 -3 2 -9 -3 -12 -5 -3 -15 1 -21 8 -10 11 -9 14 3 12 9
-1 18 -5 21 -8z m110 -28 c-3 -5 -1 -10 6 -10 7 0 10 -3 6 -6 -9 -9 -28 6 -22
17 4 5 8 9 11 9 3 0 2 -4 -1 -10z m-331 -15 c-4 -8 -11 -15 -16 -15 -6 0 -5 6
2 15 7 8 14 15 16 15 2 0 1 -7 -2 -15z m-37 -18 c0 -7 -9 -13 -19 -13 -18 0
-18 1 -2 13 10 7 18 13 19 13 1 0 2 -6 2 -13z m75 -9 c-7 -7 -12 -8 -12 -2 0
14 12 26 19 19 2 -3 -1 -11 -7 -17z m-321 -91 c-10 -9 -11 -8 -5 6 3 10 9 15
12 12 3 -3 0 -11 -7 -18z m114 -26 c3 -5 2 -12 -3 -15 -5 -3 -9 1 -9 9 0 17 3
19 12 6z m-46 -15 c9 -11 9 -16 -1 -22 -7 -4 -10 -4 -6 1 4 4 3 14 -3 22 -6 7
-9 13 -6 13 2 0 10 -6 16 -14z m-212 -41 c0 -8 -4 -12 -9 -9 -5 3 -6 10 -3 15
9 13 12 11 12 -6z m-219 -80 c-3 -3 -9 2 -12 12 -6 14 -5 15 5 6 7 -7 10 -15
7 -18z m85 -40 c-3 -9 -8 -14 -10 -11 -3 3 -2 9 2 15 9 16 15 13 8 -4z m-228
-103 c-3 -3 -11 0 -18 7 -9 10 -8 11 6 5 10 -3 15 -9 12 -12z m-160 -80 c-3
-3 -11 0 -18 7 -9 10 -8 11 6 5 10 -3 15 -9 12 -12z"/>
<path d="M9720 8120 c0 -5 5 -10 11 -10 5 0 7 5 4 10 -3 6 -8 10 -11 10 -2 0
-4 -4 -4 -10z"/>
<path d="M10700 8311 c0 -5 -7 -17 -16 -25 -8 -9 -10 -16 -4 -16 6 0 13 7 16
15 4 8 10 12 15 9 5 -3 6 2 3 10 -7 18 -14 21 -14 7z"/>
<path d="M10270 8260 c-7 -5 0 -7 18 -6 17 1 33 3 35 6 9 8 -40 8 -53 0z"/>
<path d="M10695 8260 c-4 -6 -12 -7 -18 -3 -7 4 -7 0 1 -10 8 -9 10 -22 6 -28
-4 -7 -3 -9 4 -5 6 3 13 -3 17 -14 7 -23 22 -27 22 -5 0 8 -4 12 -9 9 -4 -3
-8 0 -8 5 0 6 6 11 13 12 6 0 1 5 -13 10 -24 10 -24 11 -6 25 11 8 15 14 9 14
-7 0 -15 -5 -18 -10z"/>
<path d="M10749 8248 c-5 -18 -6 -38 -1 -34 7 8 12 36 6 36 -2 0 -4 -1 -5 -2z"/>
<path d="M10805 8240 c-3 -6 1 -7 9 -4 18 7 21 14 7 14 -6 0 -13 -4 -16 -10z"/>
<path d="M10832 8234 c-7 -8 -8 -15 -2 -19 6 -4 8 -11 5 -16 -3 -5 1 -6 9 -3
9 3 16 10 16 15 0 5 5 9 11 9 5 0 7 -6 3 -12 -4 -7 5 -2 21 12 l27 25 -6 -25
c-3 -14 -3 -19 0 -12 3 6 10 12 15 12 6 0 7 -6 3 -12 -5 -9 -2 -9 9 1 9 7 16
21 16 30 -1 13 -2 13 -6 -2 -2 -9 -9 -15 -14 -11 -5 3 -7 8 -5 12 2 4 -12 7
-32 8 -21 0 -31 -1 -24 -3 6 -3 12 -9 12 -15 0 -6 -10 -4 -23 5 -18 12 -24 12
-35 1z m28 -8 c0 -3 -4 -8 -10 -11 -5 -3 -10 -1 -10 4 0 6 5 11 10 11 6 0 10
-2 10 -4z"/>
<path d="M11050 8240 c0 -4 7 -11 16 -14 8 -3 12 -2 9 4 -3 6 -2 10 4 10 5 0
13 -4 16 -10 3 -5 17 -9 30 -8 27 3 23 12 -6 14 -10 1 -20 3 -21 4 -7 7 -48 6
-48 0z"/>
<path d="M11326 8238 c3 -5 10 -6 15 -3 13 9 11 12 -6 12 -8 0 -12 -4 -9 -9z"/>
<path d="M12514 8242 c4 -3 14 -7 22 -8 9 -1 13 0 10 4 -4 3 -14 7 -22 8 -9 1
-13 0 -10 -4z"/>
<path d="M10659 8220 c-5 -28 -2 -33 19 -37 15 -2 21 1 17 8 -4 6 -14 8 -22 5
-11 -4 -13 -1 -8 14 4 11 4 20 1 20 -3 0 -7 -4 -7 -10z"/>
<path d="M10775 8209 c-4 -6 -4 -13 -1 -16 3 -4 6 -1 6 7 0 10 4 10 18 -1 15
-13 16 -12 3 4 -16 20 -18 20 -26 6z"/>
<path d="M10200 8149 c0 -5 5 -7 10 -4 6 3 10 8 10 11 0 2 -4 4 -10 4 -5 0
-10 -5 -10 -11z"/>
<path d="M13885 8131 c-3 -5 -2 -12 3 -15 5 -3 9 1 9 9 0 17 -3 19 -12 6z"/>
<path d="M13705 8071 c-3 -5 -2 -12 3 -15 5 -3 9 1 9 9 0 17 -3 19 -12 6z"/>
<path d="M14120 8066 c0 -2 8 -10 18 -17 15 -13 16 -12 3 4 -13 16 -21 21 -21
13z"/>
<path d="M9450 8024 c8 -10 15 -20 16 -22 1 -2 4 1 7 5 3 5 -4 15 -16 23 -21
12 -21 12 -7 -6z"/>
<path d="M9180 7990 c0 -5 7 -7 15 -4 8 4 15 8 15 10 0 2 -7 4 -15 4 -8 0 -15
-4 -15 -10z"/>
<path d="M14700 7906 c0 -2 8 -10 18 -17 15 -13 16 -12 3 4 -13 16 -21 21 -21
13z"/>
<path d="M11218 7820 c-15 -4 -30 -5 -34 -1 -4 3 -4 1 -1 -5 4 -7 -1 -18 -10
-25 -14 -12 -15 -11 -10 11 4 14 4 19 1 13 -3 -7 -10 -13 -15 -13 -6 0 -7 6
-3 13 5 8 2 8 -9 -2 -9 -7 -17 -19 -17 -25 0 -6 5 -4 10 4 8 13 13 8 12 -10
-1 -7 98 -7 99 0 2 8 6 50 5 49 0 0 -13 -4 -28 -9z m22 -23 c0 -5 -6 -7 -14
-4 -8 3 -17 1 -19 -6 -2 -7 -8 -9 -12 -5 -4 4 -4 11 -1 17 8 12 46 10 46 -2z"/>
<path d="M11414 7814 c-18 -14 -18 -15 4 -4 12 6 22 13 22 15 0 8 -5 6 -26
-11z"/>
<path d="M12673 7809 c-2 -23 3 -25 10 -4 4 8 3 16 -1 19 -4 3 -9 -4 -9 -15z"/>
<path d="M11374 7796 c8 -12 20 -19 28 -17 7 2 19 4 26 4 6 0 12 4 12 9 0 11
-7 10 -31 -2 -18 -10 -23 -5 -21 21 1 3 -6 6 -14 6 -12 0 -12 -3 0 -21z"/>
<path d="M12490 7816 c0 -2 7 -7 16 -10 8 -3 12 -2 9 4 -6 10 -25 14 -25 6z"/>
<path d="M12531 7813 c5 -26 -2 -33 -20 -23 -14 7 -22 7 -27 -2 -4 -6 -3 -8 4
-4 6 3 17 0 25 -8 13 -13 16 -12 25 9 7 16 8 26 1 30 -5 4 -9 3 -8 -2z"/>
<path d="M10751 7761 c-8 -5 -21 -7 -30 -4 -14 4 -14 3 -1 -6 8 -5 11 -13 7
-17 -4 -4 -15 0 -25 9 -16 15 -19 15 -30 -3 -13 -22 -38 -28 -26 -7 4 7 3 9
-2 4 -5 -5 -10 -13 -10 -18 -3 -22 -5 -23 -14 -9 -6 9 -5 20 3 30 6 8 2 6 -11
-4 -17 -14 -22 -16 -22 -5 -1 10 -4 8 -11 -4 -6 -10 -8 -21 -5 -24 3 -4 6 -1
6 6 0 8 8 6 24 -4 15 -10 26 -12 30 -6 4 6 13 8 22 4 8 -3 14 -2 12 3 -2 5 2
10 7 11 6 0 9 -3 7 -9 -1 -5 2 -7 8 -3 6 3 7 11 4 17 -4 6 -1 8 7 6 8 -3 13
-11 12 -17 -2 -6 0 -10 5 -8 4 1 8 -2 9 -8 1 -5 -12 -11 -28 -12 -17 -2 -38
-7 -47 -13 -13 -8 -11 -9 9 -4 19 4 28 1 32 -10 4 -9 2 -16 -2 -16 -5 0 -12 6
-14 13 -4 9 -6 9 -6 0 -1 -7 -7 -10 -14 -7 -8 3 -14 -1 -14 -9 0 -7 6 -14 14
-14 7 0 13 4 13 8 0 5 11 4 25 -1 13 -5 27 -6 29 -1 3 5 17 7 31 5 16 -1 28 3
32 12 3 8 10 11 17 7 17 -11 36 -12 36 -2 0 5 5 9 11 9 5 0 7 -6 3 -12 -6 -10
-4 -10 7 -2 8 6 22 10 31 9 11 -2 16 3 15 17 -1 17 -3 18 -13 3 -11 -15 -13
-15 -17 2 -4 17 -5 17 -6 0 0 -10 -6 -15 -11 -12 -6 4 -8 10 -6 14 8 13 -61 6
-77 -8 -10 -8 -17 -9 -17 -3 0 6 8 17 18 24 9 7 18 20 20 28 1 10 -2 9 -13 -4
-16 -21 -17 -21 -33 9 -8 15 -6 22 6 32 19 14 14 17 -7 4z m-1 -81 c-9 -5 -9
-9 -1 -14 19 -12 12 -25 -11 -23 -22 1 -38 13 -38 29 0 4 6 5 13 2 18 -6 42
22 27 31 -5 3 -10 11 -10 18 0 6 7 1 16 -12 13 -18 14 -25 4 -31z m60 -11 c0
-8 5 -8 15 1 9 7 15 8 15 2 0 -15 -28 -23 -36 -10 -5 7 -12 5 -21 -7 -7 -11
-13 -14 -13 -9 0 12 21 34 32 34 4 0 8 -5 8 -11z"/>
<path d="M10726 7662 c-3 -5 1 -9 9 -9 8 0 12 4 9 9 -3 4 -7 8 -9 8 -2 0 -6
-4 -9 -8z"/>
<path d="M10780 7755 c0 -8 2 -15 4 -15 2 0 6 7 10 15 3 8 1 15 -4 15 -6 0
-10 -7 -10 -15z"/>
<path d="M11324 7743 c12 -24 13 -33 3 -36 -9 -4 -9 -6 1 -6 7 -1 15 6 18 14
4 8 11 12 18 8 6 -3 7 -2 3 3 -5 5 -13 9 -17 9 -5 0 -16 9 -25 20 -15 18 -15
17 -1 -12z"/>
<path d="M11489 7768 c-4 -12 -5 -57 0 -53 6 6 10 55 4 55 -1 0 -3 -1 -4 -2z"/>
<path d="M12026 7762 c-3 -4 4 -9 15 -9 23 -2 25 3 4 10 -8 4 -16 3 -19 -1z"/>
<path d="M12326 7731 c-3 -5 2 -15 12 -22 15 -12 16 -12 5 2 -7 9 -10 19 -6
22 3 4 4 7 0 7 -3 0 -8 -4 -11 -9z"/>
<path d="M12501 7723 c7 -12 15 -20 18 -17 3 2 -3 12 -13 22 -17 16 -18 16 -5
-5z"/>
<path d="M13206 7732 c-3 -5 1 -9 9 -9 8 0 12 4 9 9 -3 4 -7 8 -9 8 -2 0 -6
-4 -9 -8z"/>
<path d="M10493 7713 c-3 -7 -10 -10 -16 -6 -5 3 -7 1 -4 -5 11 -16 57 -2 57
17 0 13 -32 8 -37 -6z"/>
<path d="M11450 7721 c0 -6 4 -13 10 -16 6 -3 7 1 4 9 -7 18 -14 21 -14 7z"/>
<path d="M10540 7700 c0 -15 -9 -22 -30 -26 -43 -9 -37 -24 10 -24 42 0 50
-11 25 -36 -8 -9 -15 -11 -15 -5 0 6 -11 11 -25 11 -19 0 -23 -4 -18 -17 4
-11 8 -12 11 -5 2 7 8 12 13 12 6 0 8 -4 5 -9 -4 -5 2 -8 11 -6 10 2 18 4 18
5 0 1 13 3 29 5 36 5 45 13 26 25 -11 7 -12 10 -2 10 9 0 12 10 10 28 -2 23
-8 27 -31 26 -20 -1 -27 3 -23 12 3 8 1 14 -4 14 -6 0 -10 -9 -10 -20z"/>
<path d="M10395 7702 c-2 -2 -18 -6 -37 -9 -37 -6 -48 -17 -43 -46 3 -13 0
-17 -11 -13 -8 3 -12 2 -9 -3 3 -5 1 -12 -5 -16 -12 -7 -4 -25 11 -25 6 0 8 4
4 9 -3 5 0 13 6 17 7 4 9 3 6 -3 -4 -7 19 -10 69 -8 50 1 71 -1 62 -7 -10 -8
-9 -9 4 -5 9 3 19 1 22 -6 3 -9 5 -9 5 0 1 6 -3 15 -9 18 -5 3 -10 28 -10 56
0 49 0 49 -30 47 -17 -1 -33 -4 -35 -6z m41 -24 c3 -3 -14 -6 -38 -6 -26 -1
-37 2 -29 8 14 8 58 7 67 -2z"/>
<path d="M10285 7678 c-11 -7 -31 -13 -45 -15 -14 -2 -38 -5 -55 -7 -16 -3
-32 -5 -35 -7 -3 -1 -9 -3 -15 -4 -76 -13 -134 -31 -152 -48 -27 -24 -31 -46
-5 -26 15 13 16 12 4 -3 -11 -13 -11 -21 -2 -35 10 -16 11 -16 6 -1 -3 10 -1
20 4 23 4 3 7 -6 5 -21 -2 -19 1 -24 13 -19 12 4 13 3 3 -9 -11 -13 -15 -12
-34 7 -12 12 -20 28 -19 36 3 11 -3 10 -25 -4 -22 -15 -25 -15 -15 -2 8 9 11
21 7 27 -4 6 -3 10 2 9 20 -3 34 2 28 11 -3 5 -13 6 -21 3 -15 -5 -36 -9 -77
-12 -10 0 -22 -12 -27 -26 -11 -30 -20 -33 -15 -5 3 14 0 18 -8 13 -7 -4 -16
-8 -22 -9 -5 0 -16 -2 -23 -2 -7 -1 -11 -5 -9 -9 3 -5 -13 -8 -35 -9 -25 0
-45 -7 -53 -17 -8 -11 -15 -13 -22 -6 -8 8 -13 7 -17 0 -4 -6 -17 -11 -29 -11
-12 0 -34 -6 -48 -14 -14 -7 -43 -16 -65 -20 -21 -4 -48 -15 -58 -24 -15 -13
-18 -14 -11 -2 7 12 5 12 -11 -1 -10 -9 -25 -14 -31 -12 -7 3 -13 0 -13 -7 0
-6 -4 -8 -10 -5 -5 3 -10 2 -10 -3 0 -6 -9 -8 -20 -5 -12 3 -20 0 -20 -6 0 -7
5 -9 13 -5 8 5 8 2 -2 -9 -16 -20 -22 -22 -18 -6 1 6 -4 14 -12 17 -8 2 -11 0
-7 -6 4 -6 -2 -8 -16 -4 -13 3 -19 1 -15 -5 4 -6 1 -11 -6 -10 -39 1 -49 -4
-42 -20 5 -15 4 -16 -6 -5 -15 14 -33 16 -25 3 4 -5 -4 -7 -16 -3 -17 4 -20 2
-14 -13 5 -15 4 -16 -9 -5 -10 8 -15 9 -15 2 0 -6 -6 -9 -13 -6 -8 3 -20 -2
-27 -10 -7 -9 -16 -13 -21 -10 -13 8 -69 -28 -62 -40 3 -6 0 -6 -7 1 -15 14
-56 1 -77 -25 -8 -9 -12 -11 -8 -4 8 15 3 15 -29 -1 -14 -8 -23 -17 -20 -20 3
-3 -3 -3 -14 -1 -10 3 -25 0 -33 -8 -8 -7 -21 -14 -29 -16 -33 -8 -110 -45
-110 -54 0 -5 -4 -7 -9 -3 -13 7 -101 -36 -95 -47 3 -4 -2 -5 -10 -2 -9 3 -16
1 -16 -6 0 -6 -4 -8 -10 -5 -5 3 -10 1 -10 -4 0 -6 -4 -10 -8 -9 -14 5 -112
-45 -106 -53 3 -5 -1 -6 -9 -3 -8 3 -21 -1 -28 -8 -8 -7 -21 -14 -28 -16 -24
-5 -201 -103 -201 -111 0 -4 -6 -8 -13 -8 -22 0 -146 -76 -140 -86 3 -6 1 -7
-5 -3 -9 5 -133 -63 -152 -84 -3 -3 -34 -23 -70 -44 -36 -22 -67 -42 -70 -45
-3 -3 -13 -10 -22 -16 -127 -74 -503 -362 -721 -552 -164 -145 -455 -437 -601
-605 -511 -589 -913 -1263 -1186 -1991 l-69 -182 -86 -3 -85 -3 0 -209 0 -210
250 0 250 0 0 210 0 210 -50 0 c-27 0 -50 4 -50 9 0 41 174 484 280 713 412
888 1058 1691 1839 2285 69 52 125 99 124 102 -1 4 4 8 10 8 7 0 64 35 127 79
128 88 315 208 430 274 41 24 78 47 81 52 3 6 9 9 13 9 3 -1 33 12 66 29 38
19 58 35 54 42 -4 6 -3 8 3 5 13 -8 105 37 96 48 -5 4 -3 5 3 2 16 -9 167 66
157 77 -4 5 -3 6 4 2 16 -9 64 14 56 27 -3 6 -1 7 5 4 15 -10 43 3 35 16 -3 6
-1 7 6 3 7 -4 41 5 76 20 55 24 64 31 59 49 -6 20 -6 20 10 0 9 -12 15 -15 16
-7 0 7 5 10 10 7 6 -4 18 -1 26 6 9 7 23 14 31 15 29 5 44 14 38 24 -3 6 1 7
10 4 18 -7 75 14 75 28 0 6 7 7 16 4 12 -5 15 -2 10 11 -6 15 -5 16 5 6 15
-15 33 -17 25 -4 -3 5 0 9 7 8 34 -1 48 4 41 15 -4 6 -3 8 4 4 14 -8 105 27
95 38 -4 4 0 4 9 1 9 -4 26 -1 38 5 12 6 29 13 38 15 42 8 122 38 122 46 0 4
10 13 23 19 21 11 21 10 3 -4 -28 -23 -2 -20 52 4 23 10 45 19 47 20 3 0 7 1
10 1 3 1 10 3 15 4 6 1 13 3 18 4 4 1 -1 8 -11 15 -10 8 -18 17 -18 21 0 4 8
13 18 20 15 11 19 11 26 -2 5 -8 6 -17 3 -20 -3 -4 -6 -1 -6 5 0 7 -4 12 -8
12 -13 0 -10 -25 5 -38 9 -9 13 -9 13 -2 0 7 9 9 23 5 18 -6 20 -5 10 6 -16
16 -17 29 -2 29 5 0 7 -4 4 -10 -9 -14 21 -16 73 -4 16 3 22 10 18 20 -3 8 -1
12 4 9 18 -11 50 -14 50 -5 0 5 7 7 15 4 9 -4 15 0 15 10 0 9 5 16 11 16 5 0
7 -4 4 -10 -3 -6 1 -7 9 -4 9 3 13 11 9 18 -4 6 0 5 9 -2 12 -9 22 -10 35 -4
10 6 21 10 26 11 4 1 9 2 12 2 3 1 10 3 15 4 6 1 11 3 13 5 5 4 43 11 67 11
14 1 31 6 38 11 6 6 12 7 12 3 0 -4 6 -3 13 2 6 6 20 9 30 8 9 -2 17 1 17 7 0
5 9 7 19 3 11 -3 22 -2 25 3 3 5 17 8 31 7 14 -2 25 1 25 6 0 6 16 17 35 25
19 8 35 17 35 19 0 3 -16 -1 -35 -9 -19 -8 -36 -13 -36 -10 -1 2 -2 7 -3 12
-1 4 -5 13 -9 20 -6 8 -4 12 5 10 7 -2 12 3 10 10 -1 7 4 20 13 28 8 9 15 20
15 25 0 11 0 11 -25 -3z m-7 -27 c-6 -11 -18 -17 -26 -13 -11 4 -13 1 -7 -8 5
-9 4 -11 -3 -6 -18 11 -14 26 7 26 11 0 23 5 26 10 3 6 8 10 11 10 2 0 -1 -9
-8 -19z m-58 -22 c0 -6 -4 -7 -10 -4 -5 3 -10 11 -10 16 0 6 5 7 10 4 6 -3 10
-11 10 -16z m-60 -3 c0 -2 -11 -6 -25 -8 -13 -3 -22 -1 -19 3 5 9 44 13 44 5z
m11 -29 c-10 -9 -11 -8 -5 6 3 10 9 15 12 12 3 -3 0 -11 -7 -18z m25 -13 c-9
-9 -14 -19 -11 -22 3 -4 10 0 15 8 7 11 10 11 10 2 0 -16 -43 -32 -83 -31
l-32 2 32 6 c28 5 77 50 69 63 -1 3 2 2 7 -3 6 -5 3 -14 -7 -25z m64 16 c13
-8 13 -10 1 -10 -11 0 -9 -4 5 -15 17 -13 16 -13 -15 -2 -23 8 -28 13 -16 16
15 2 15 5 4 12 -8 5 -9 9 -4 9 6 0 17 -5 25 -10z m-367 -66 c-8 -13 -19 -24
-24 -24 -14 0 -20 18 -8 26 8 4 9 3 5 -4 -4 -7 -2 -12 3 -12 6 0 11 7 11 15 0
8 -5 15 -11 15 -8 0 -8 5 1 15 9 11 16 12 26 4 11 -9 11 -15 -3 -35z m357 25
c13 -9 13 -10 -1 -6 -9 3 -22 0 -28 -6 -9 -9 -11 -8 -6 6 8 20 14 21 35 6z
m-205 -39 c3 -5 1 -10 -4 -10 -6 0 -11 5 -11 10 0 6 2 10 4 10 3 0 8 -4 11
-10z m-132 -15 c-3 -9 -8 -14 -10 -11 -3 3 -2 9 2 15 9 16 15 13 8 -4z m28 -8
c-10 -9 -11 -8 -5 6 3 10 9 15 12 12 3 -3 0 -11 -7 -18z m-289 -15 c-8 -2 -4
-10 9 -21 18 -14 19 -18 6 -18 -10 0 -15 3 -12 5 3 3 -4 12 -15 19 -23 16 -18
35 7 26 11 -4 13 -8 5 -11z m-34 -23 c3 -12 2 -12 -6 0 -9 13 -13 13 -29 0
-17 -13 -17 -13 -4 4 16 20 33 18 39 -4z m117 -27 c3 -9 3 -13 -1 -9 -4 4 -13
2 -19 -3 -9 -8 -14 -5 -17 8 -6 23 28 27 37 4z m-304 -39 c13 -16 12 -17 -3
-4 -10 7 -18 15 -18 17 0 8 8 3 21 -13z m-35 -65 c5 4 5 3 1 -2 -12 -15 -34
-15 -34 0 0 9 4 11 12 4 7 -5 16 -6 21 -2z m-220 -10 c5 -7 3 -8 -6 -3 -9 6
-12 4 -8 -6 4 -10 -1 -15 -13 -15 -17 0 -17 2 -2 18 19 21 20 21 29 6z m43
-35 c-4 -22 3 -25 17 -7 14 18 15 18 4 -3 -6 -13 -15 -23 -19 -23 -11 0 -22
26 -14 34 8 8 13 8 12 -1z m-422 -188 c0 -8 -4 -12 -9 -9 -5 3 -6 10 -3 15 9
13 12 11 12 -6z m-167 -19 c0 -2 -7 -7 -16 -10 -8 -3 -12 -2 -9 4 6 10 25 14
25 6z m-489 -329 c-10 -9 -11 -8 -5 6 3 10 9 15 12 12 3 -3 0 -11 -7 -18z"/>
<path d="M9880 7560 c0 -5 5 -10 11 -10 5 0 7 5 4 10 -3 6 -8 10 -11 10 -2 0
-4 -4 -4 -10z"/>
<path d="M10937 7678 c-15 -12 -14 -13 10 -14 16 -1 22 1 15 3 -6 3 -10 9 -6
14 7 12 1 11 -19 -3z"/>
<path d="M10991 7676 c-7 -8 -5 -12 9 -13 24 -2 35 13 16 20 -8 3 -19 0 -25
-7z"/>
<path d="M13060 7646 c0 -2 7 -7 16 -10 8 -3 12 -2 9 4 -6 10 -25 14 -25 6z"/>
<path d="M9960 7599 c0 -5 5 -7 10 -4 6 3 10 8 10 11 0 2 -4 4 -10 4 -5 0 -10
-5 -10 -11z"/>
<path d="M10364 7585 c3 -21 16 -31 16 -12 0 9 -4 18 -9 21 -5 4 -8 -1 -7 -9z"/>
<path d="M10394 7589 c-9 -16 2 -22 21 -11 15 8 16 10 1 15 -8 3 -18 2 -22 -4z"/>
<path d="M10310 7560 c-9 -6 -10 -10 -3 -10 6 0 15 5 18 10 8 12 4 12 -15 0z"/>
<path d="M13865 7511 c-3 -5 -2 -12 3 -15 5 -3 9 1 9 9 0 17 -3 19 -12 6z"/>
<path d="M14723 7305 c0 -8 4 -12 9 -9 5 3 6 10 3 15 -9 13 -12 11 -12 -6z"/>
<path d="M11320 7276 c0 -2 7 -7 16 -10 8 -3 12 -2 9 4 -6 10 -25 14 -25 6z"/>
<path d="M11410 7275 c0 -2 6 -8 13 -14 10 -8 14 -7 14 2 0 8 -6 14 -14 14 -7
0 -13 -1 -13 -2z"/>
<path d="M11392 7256 c7 -8 15 -12 17 -11 5 6 -10 25 -20 25 -5 0 -4 -6 3 -14z"/>
<path d="M12634 7258 c-2 -4 7 -5 22 -2 18 3 23 1 18 -7 -4 -8 -3 -9 5 -5 6 4
9 11 6 16 -6 10 -44 9 -51 -2z"/>
<path d="M11286 7251 c9 -9 34 -9 34 -1 0 5 -9 8 -20 7 -10 -1 -17 -3 -14 -6z"/>
<path d="M11049 7243 c-1 -5 -1 -11 0 -15 1 -11 -7 -10 -28 1 -12 7 -18 6 -18
-2 0 -8 16 -13 43 -13 39 0 54 15 16 17 -14 0 -13 2 3 9 17 7 17 9 3 9 -10 1
-19 -2 -19 -6z"/>
<path d="M11353 7230 c17 -14 32 -18 46 -12 19 7 19 7 -4 18 -20 10 -22 9 -17
-5 5 -14 3 -14 -15 2 -11 9 -23 17 -28 17 -4 0 4 -9 18 -20z"/>
<path d="M10956 7231 c-4 -6 -14 -8 -24 -5 -12 4 -13 3 -4 -3 16 -12 46 -10
50 2 5 13 -15 18 -22 6z"/>
<path d="M11096 7228 c3 -5 10 -6 15 -3 13 9 11 12 -6 12 -8 0 -12 -4 -9 -9z"/>
<path d="M12764 7224 c-18 -14 -18 -15 4 -4 12 6 22 13 22 15 0 8 -5 6 -26
-11z"/>
<path d="M12887 7222 c3 -7 9 -10 12 -5 3 4 10 11 15 15 4 4 -1 6 -12 5 -12
-1 -18 -6 -15 -15z"/>
<path d="M11285 7222 c3 -3 -3 -11 -13 -18 -16 -13 -16 -14 5 -20 14 -4 20
-11 16 -21 -5 -11 -9 -10 -27 6 -21 20 -23 20 -37 3 -25 -29 -30 -40 -17 -38
25 3 37 17 31 34 -5 14 -3 14 16 -3 13 -11 36 -20 52 -21 24 -1 27 2 19 16 -5
10 -6 20 -2 24 3 4 -2 4 -13 0 -20 -7 -20 -7 -1 14 10 12 23 19 29 15 6 -3 7
-1 3 6 -6 9 -11 9 -22 0 -8 -6 -14 -7 -14 -2 0 5 -7 10 -15 10 -8 0 -13 -3
-10 -5z m20 -22 c-3 -5 -14 -10 -23 -10 -15 0 -15 2 -2 10 20 13 33 13 25 0z
m10 -40 c3 -5 1 -10 -4 -10 -6 0 -11 5 -11 10 0 6 2 10 4 10 3 0 8 -4 11 -10z"/>
<path d="M10763 7199 c-6 -6 -9 -18 -6 -25 4 -10 0 -12 -11 -8 -10 4 -15 12
-13 19 3 7 -3 11 -16 9 -12 -1 -28 -3 -35 -3 -7 -1 -10 -6 -7 -11 4 -6 10 -8
15 -5 12 7 41 -6 34 -16 -3 -5 3 -6 13 -3 17 5 17 5 1 -9 -10 -8 -14 -18 -10
-22 4 -5 2 -5 -5 -1 -6 3 -14 2 -18 -4 -11 -19 22 -10 40 10 10 12 26 18 35
15 11 -3 17 0 17 10 0 9 -6 14 -14 11 -7 -3 -13 -1 -13 3 0 5 7 11 15 15 8 3
15 11 14 18 0 10 -2 10 -6 1 -2 -7 -9 -13 -14 -13 -6 0 -7 5 -4 10 8 13 2 13
-12 -1z"/>
<path d="M11206 7202 c-2 -4 -1 -14 4 -22 7 -11 9 -9 7 8 -1 24 -3 26 -11 14z"/>
<path d="M11445 7199 c-4 -6 -5 -12 -2 -15 2 -3 7 2 10 11 7 17 1 20 -8 4z"/>
<path d="M11774 7189 c-20 -23 -5 -31 26 -13 14 7 21 14 15 14 -5 0 -3 5 5 10
12 7 10 9 -8 7 -13 -1 -30 -9 -38 -18z m26 2 c0 -5 -7 -12 -16 -15 -14 -5 -15
-4 -4 9 14 17 20 19 20 6z"/>
<path d="M12031 7189 c5 -10 15 -21 22 -25 8 -6 8 -3 -1 9 -8 9 -11 20 -8 25
3 5 -1 9 -9 9 -10 0 -11 -5 -4 -18z"/>
<path d="M12253 7198 c-10 -17 -14 -42 -5 -33 4 4 7 12 7 18 1 7 7 11 14 9 7
-1 10 2 6 8 -8 13 -12 13 -22 -2z"/>
<path d="M12293 7195 c0 -8 4 -12 9 -9 5 3 6 10 3 15 -9 13 -12 11 -12 -6z"/>
<path d="M12485 7200 c-3 -6 1 -7 9 -4 18 7 21 14 7 14 -6 0 -13 -4 -16 -10z"/>
<path d="M10648 7185 c-7 -8 -58 -18 -82 -17 -14 1 -16 -2 -7 -11 13 -13 15
-31 2 -22 -5 3 -12 1 -16 -5 -3 -5 -1 -10 5 -10 7 0 10 -6 8 -12 -7 -21 -33
-15 -33 7 0 11 -5 20 -12 20 -6 0 -14 3 -18 7 -9 8 16 5 32 -5 6 -4 14 -3 18
3 3 5 4 11 1 11 -25 6 -54 4 -71 -4 -17 -9 -29 -11 -73 -16 -8 -1 -11 -8 -7
-20 4 -12 0 -21 -12 -26 -17 -6 -17 -7 0 -20 12 -9 15 -15 7 -20 -13 -8 -13
-8 -27 19 -7 12 -13 15 -17 7 -4 -6 -2 -11 3 -11 6 0 11 -6 11 -13 0 -8 10
-19 23 -25 l22 -10 -22 1 c-13 1 -23 5 -23 9 0 4 -5 8 -11 8 -5 0 -7 -5 -3
-12 4 -6 3 -8 -4 -5 -16 11 -41 -3 -35 -19 3 -9 10 -11 17 -6 6 5 24 9 39 10
16 1 34 5 40 9 15 10 46 16 115 25 6 1 12 6 12 12 0 6 5 4 10 -4 6 -9 10 -10
10 -3 0 7 10 10 23 8 38 -7 49 8 46 61 -4 47 -3 49 23 50 15 1 25 -3 22 -7 -3
-5 0 -9 5 -9 6 0 11 7 11 15 0 8 -7 15 -16 15 -8 0 -12 5 -9 10 7 11 2 14 -7
5z m-49 -38 c8 -10 7 -14 -2 -14 -8 0 -14 6 -14 14 0 7 1 13 2 13 2 0 8 -6 14
-13z m-109 -17 c0 -5 -4 -10 -10 -10 -5 0 -10 5 -10 10 0 6 5 10 10 10 6 0 10
-4 10 -10z m10 -30 c0 -5 -4 -10 -10 -10 -5 0 -10 5 -10 10 0 6 5 10 10 10 6
0 10 -4 10 -10z m-5 -60 c-2 -4 -23 -6 -45 -4 -22 1 -40 -2 -40 -7 0 -6 -5 -7
-11 -3 -18 11 7 21 56 21 25 0 43 -3 40 -7z"/>
<path d="M11483 7171 c-9 -14 -8 -18 3 -18 7 0 11 4 8 8 -2 4 1 9 8 11 7 3 8
7 2 11 -5 3 -15 -2 -21 -12z"/>
<path d="M12423 7175 c0 -8 4 -12 9 -9 5 3 6 10 3 15 -9 13 -12 11 -12 -6z"/>
<path d="M12516 7164 c-5 -14 -4 -15 9 -4 17 14 19 20 6 20 -5 0 -12 -7 -15
-16z"/>
<path d="M10686 7145 c-4 -14 -11 -23 -17 -20 -5 4 -8 1 -7 -7 2 -7 -3 -12 -9
-10 -15 2 -13 -19 2 -30 6 -5 5 -8 -2 -8 -7 0 -13 -5 -13 -11 0 -8 4 -8 15 1
8 6 19 9 25 5 5 -3 10 -1 10 5 0 6 5 8 12 4 7 -4 8 -3 4 4 -4 7 -1 12 9 12 9
0 14 -4 11 -8 -3 -5 3 -9 12 -9 19 0 42 20 42 36 0 6 8 11 18 11 14 0 15 -2 2
-10 -12 -8 -13 -11 -2 -22 9 -9 12 -9 10 -1 -2 6 5 18 15 25 17 12 15 14 -15
13 -18 0 -36 5 -40 10 -5 6 -8 3 -8 -7 0 -9 -6 -19 -12 -21 -10 -4 -10 -6 0
-6 7 -1 11 -5 8 -10 -4 -5 -19 -3 -37 6 -27 13 -29 17 -16 32 8 9 12 22 10 29
-8 20 -20 14 -27 -13z m9 -45 c3 -6 -1 -13 -10 -16 -19 -8 -30 0 -20 15 8 14
22 14 30 1z"/>
<path d="M12456 7153 c-6 -14 -5 -15 5 -6 7 7 10 15 7 18 -3 3 -9 -2 -12 -12z"/>
<path d="M12539 7153 c-13 -16 -12 -17 4 -4 9 7 17 15 17 17 0 8 -8 3 -21 -13z"/>
<path d="M11041 7131 c-9 -6 -10 -11 -2 -15 6 -4 11 -3 11 2 0 5 12 7 28 5 21
-4 24 -2 12 6 -18 13 -31 13 -49 2z"/>
<path d="M10365 7120 c-4 -6 -12 -10 -18 -9 -28 3 -48 -2 -42 -11 3 -5 1 -10
-4 -10 -6 0 -11 5 -11 12 0 9 -3 9 -11 1 -6 -6 -18 -9 -25 -6 -8 3 -21 0 -29
-7 -8 -7 -15 -10 -15 -7 0 4 -18 0 -39 -8 -22 -7 -42 -11 -45 -8 -3 4 -6 1 -6
-5 0 -6 -9 -9 -19 -7 -12 2 -31 -10 -55 -36 -19 -22 -36 -43 -36 -47 -1 -4 -4
-9 -7 -12 -4 -3 -3 1 2 9 6 11 3 13 -13 9 -12 -4 -20 -2 -16 3 3 5 12 9 20 9
8 0 14 4 14 10 0 5 -7 7 -15 4 -8 -4 -15 -2 -15 4 0 11 18 11 36 -1 12 -7 27
16 17 26 -7 8 -91 -19 -110 -35 -12 -9 -15 -9 -9 0 4 6 3 12 -2 12 -15 0 -33
-26 -24 -35 4 -5 1 -5 -6 -1 -7 4 -9 12 -6 18 4 6 3 9 -2 6 -27 -15 -56 -24
-86 -26 -10 -1 -18 -7 -18 -13 0 -5 4 -7 10 -4 6 3 7 -1 4 -10 -7 -18 -30 -14
-26 5 3 12 -16 8 -68 -13 -14 -6 -27 -11 -30 -12 -3 0 -15 -6 -26 -13 -12 -6
-24 -9 -27 -6 -7 8 -67 -28 -62 -36 2 -4 -2 -7 -10 -7 -8 0 -12 4 -9 9 7 12
-3 10 -39 -6 -37 -16 -68 -28 -82 -32 -33 -8 -65 -25 -65 -34 0 -6 -5 -8 -10
-5 -14 9 -42 -14 -33 -28 3 -6 1 -7 -6 -3 -6 4 -9 12 -5 17 3 6 -11 3 -33 -6
-21 -10 -50 -21 -65 -27 -16 -5 -28 -14 -28 -20 0 -5 -5 -6 -12 -2 -8 5 -9 2
-4 -11 5 -14 4 -16 -7 -6 -11 9 -36 1 -115 -35 -56 -26 -99 -51 -96 -56 3 -5
2 -8 -3 -7 -4 1 -11 0 -15 -1 -13 -4 -27 -7 -39 -9 -5 0 -7 -6 -3 -13 4 -7 3
-8 -4 -4 -11 7 -79 -24 -112 -50 -15 -12 -20 -14 -41 -14 -5 0 -7 -5 -3 -12 4
-7 3 -8 -5 -4 -6 4 -42 -10 -79 -31 -37 -21 -80 -44 -95 -52 -18 -9 -26 -19
-22 -29 4 -11 2 -12 -7 -4 -10 8 -29 1 -73 -26 -33 -20 -61 -40 -63 -44 -2 -4
-8 -8 -14 -8 -19 0 -158 -92 -152 -101 3 -5 -1 -7 -8 -4 -17 6 -294 -189 -290
-205 1 -6 -2 -9 -8 -5 -16 10 -258 -182 -455 -360 -561 -508 -989 -1075 -1326
-1758 -102 -208 -241 -540 -290 -694 l-23 -73 -68 0 -68 0 0 -195 0 -194 43
-11 c198 -53 303 -108 424 -223 l93 -89 0 356 0 356 -110 0 -110 0 6 28 c11
45 118 340 169 462 69 170 229 495 325 660 320 552 751 1063 1230 1460 41 34
86 72 100 84 14 11 86 66 160 120 74 54 141 106 148 114 6 9 12 13 12 9 0 -9
124 73 128 85 2 4 8 8 12 8 19 0 130 77 123 85 -5 4 -3 5 4 1 12 -7 77 27 68
36 -3 2 1 5 7 5 7 0 39 15 71 33 43 24 57 37 52 49 -5 12 -4 13 6 4 9 -9 19
-8 43 4 17 9 34 20 37 25 3 5 8 9 10 8 5 -3 351 167 365 179 7 6 15 7 20 3 4
-4 4 2 0 13 -5 15 -4 17 4 9 9 -9 22 -8 51 4 21 8 36 19 33 23 -3 5 3 6 12 2
12 -4 15 -3 10 5 -4 7 -2 10 7 7 17 -7 100 29 90 39 -4 4 1 4 12 0 15 -6 17
-4 12 11 -6 15 -5 16 7 6 12 -10 20 -10 38 0 13 7 30 14 38 15 14 3 24 7 95
40 22 10 47 19 55 19 8 0 15 8 14 16 -1 9 4 16 11 16 7 0 11 -6 8 -14 -7 -17
29 -5 40 14 4 7 13 13 20 13 7 0 6 -4 -3 -10 -24 -16 -5 -11 44 10 25 10 46
24 46 30 0 5 5 10 11 10 5 0 7 -4 4 -10 -3 -5 -1 -10 5 -10 6 0 13 7 16 15 4
8 10 15 16 15 5 0 7 -4 3 -9 -3 -5 11 -5 32 1 21 6 42 16 46 24 4 8 13 14 20
14 7 0 6 -4 -3 -10 -21 -13 -7 -12 27 2 15 6 31 12 36 13 4 2 10 4 15 5 13 4
27 7 45 8 9 1 17 7 17 13 0 5 -4 7 -10 4 -5 -3 -10 0 -10 7 -1 9 -5 7 -14 -5
-12 -16 -14 -16 -20 -2 -3 9 -2 14 3 10 5 -3 11 0 13 6 3 9 9 9 25 1 12 -7 23
-9 26 -4 2 4 2 1 0 -7 -2 -10 4 -12 24 -7 16 4 33 7 40 8 7 1 10 5 7 10 -3 5
-10 5 -16 2 -7 -4 -8 -2 -4 4 5 8 13 9 25 3 9 -5 23 -6 31 -1 7 4 20 6 28 2 9
-3 13 -1 9 5 -4 6 3 9 16 8 29 -3 70 12 62 24 -3 5 -1 13 5 16 6 4 9 1 8 -6
-2 -6 2 -13 9 -16 7 -3 9 3 6 16 -3 14 0 21 8 21 8 0 22 7 32 15 18 13 17 14
-10 29 -26 14 -20 21 15 17 6 -1 12 4 12 11 0 9 2 10 8 2 5 -9 11 -8 20 2 8 9
9 14 2 14 -6 0 -8 5 -5 10 3 6 4 10 1 10 -3 0 -8 -5 -11 -10z m-107 -42 c-3
-7 -12 -14 -22 -14 -15 -2 -15 -2 0 3 14 4 14 7 3 14 -11 7 -10 9 4 9 11 0 17
-6 15 -12z m44 -32 c-3 -5 2 -6 12 -3 9 4 15 3 12 -2 -3 -5 -18 -8 -33 -8 -16
0 -22 2 -15 4 6 3 12 9 12 14 0 6 -4 8 -8 5 -4 -2 -8 4 -8 14 0 18 1 18 17 2
9 -9 14 -21 11 -26z m-95 19 c0 -8 -4 -12 -9 -9 -5 3 -6 10 -3 15 9 13 12 11
12 -6z m-263 -80 c-14 -11 -15 -14 -3 -9 13 4 17 0 15 -19 -1 -18 -6 -23 -19
-19 -17 4 -17 5 0 19 10 8 12 12 6 8 -25 -12 -33 7 -11 25 13 10 25 16 27 14
3 -2 -4 -11 -15 -19z m133 8 c-4 -3 -1 -13 6 -22 11 -14 10 -14 -5 -2 -16 12
-16 31 -1 31 4 0 3 -3 0 -7z m-2 -42 c3 -5 1 -13 -5 -16 -6 -4 -9 -2 -8 4 2 5
-6 17 -17 26 -20 16 -20 16 2 5 12 -5 24 -14 28 -19z m-254 -35 c-12 -14 -74
-16 -87 -3 -4 3 12 4 35 2 31 -3 43 0 48 11 3 8 8 13 11 10 3 -3 -1 -12 -7
-20z m112 -1 c-3 -9 -8 -14 -10 -11 -3 3 -2 9 2 15 9 16 15 13 8 -4z m-232
-52 c13 -16 12 -17 -3 -4 -10 7 -18 15 -18 17 0 8 8 3 21 -13z m-191 -7 c0 -2
-7 -7 -16 -10 -8 -3 -12 -2 -9 4 6 10 25 14 25 6z m74 -34 c2 -4 -4 -8 -14 -8
-10 0 -16 4 -14 8 3 4 9 8 14 8 5 0 11 -4 14 -8z m-44 -36 c0 -2 -6 -9 -14
-15 -11 -9 -16 -9 -22 0 -4 7 -3 9 4 5 6 -3 13 -2 17 4 6 10 15 14 15 6z m-49
-23 c13 -17 13 -17 -6 -3 -11 8 -22 16 -24 17 -2 2 0 3 6 3 6 0 17 -8 24 -17z
m-404 -115 c-3 -8 -6 -5 -6 6 -1 11 2 17 5 13 3 -3 4 -12 1 -19z"/>
<path d="M10866 7114 c18 -15 18 -15 -3 -9 -14 4 -23 2 -23 -5 0 -6 -5 -8 -12
-4 -7 4 -8 3 -4 -5 5 -7 12 -9 19 -3 7 4 22 7 35 6 12 0 22 0 22 2 0 8 -33 34
-43 34 -6 0 -2 -7 9 -16z"/>
<path d="M10900 7116 c0 -4 6 -6 14 -3 8 3 16 1 18 -5 3 -8 11 -7 26 4 22 15
21 15 -18 14 -22 0 -40 -5 -40 -10z"/>
<path d="M10996 7122 c-3 -5 1 -9 9 -9 8 0 15 4 15 9 0 4 -4 8 -9 8 -6 0 -12
-4 -15 -8z"/>
<path d="M13523 7105 c0 -8 4 -12 9 -9 5 3 6 10 3 15 -9 13 -12 11 -12 -6z"/>
<path d="M12967 7097 c-3 -8 1 -14 8 -14 7 0 11 6 8 14 -3 7 -6 13 -8 13 -2 0
-5 -6 -8 -13z"/>
<path d="M10040 7039 c0 -5 5 -7 10 -4 6 3 10 8 10 11 0 2 -4 4 -10 4 -5 0
-10 -5 -10 -11z"/>
<path d="M13465 7031 c-3 -5 -2 -12 3 -15 5 -3 9 1 9 9 0 17 -3 19 -12 6z"/>
<path d="M15676 6708 c3 -5 10 -6 15 -3 13 9 11 12 -6 12 -8 0 -12 -4 -9 -9z"/>
<path d="M14900 6586 c0 -2 7 -7 16 -10 8 -3 12 -2 9 4 -6 10 -25 14 -25 6z"/>
<path d="M16280 6446 c0 -2 8 -10 18 -17 15 -13 16 -12 3 4 -13 16 -21 21 -21
13z"/>
<path d="M10745 6315 c-5 -2 -22 -6 -37 -9 -37 -8 -98 -63 -114 -103 -18 -43
-18 -137 0 -172 37 -70 132 -119 205 -106 44 8 116 49 125 70 11 29 38 14 119
-67 96 -96 148 -172 191 -277 l31 -76 3 -1462 2 -1463 -130 0 -130 0 0 -1185
0 -1185 774 0 c691 0 776 2 790 16 14 13 16 62 16 380 l0 364 -360 0 -360 0 0
805 0 805 -265 0 -264 0 -3 1478 -3 1477 -34 80 c-70 163 -182 313 -286 385
-35 24 -43 36 -49 72 -10 61 -48 120 -93 145 -36 20 -107 36 -128 28z"/>
<path d="M17435 6110 c-4 -6 -11 -7 -17 -4 -7 4 -8 2 -4 -5 6 -9 11 -9 22 0
14 11 18 19 10 19 -3 0 -8 -5 -11 -10z"/>
<path d="M14167 5965 c-44 -15 -83 -48 -103 -87 -18 -35 -18 -111 1 -148 19
-37 73 -78 113 -86 l32 -6 0 -1414 0 -1414 40 0 40 0 0 1414 0 1414 32 6 c40
8 94 49 113 86 19 37 19 113 0 149 -43 85 -164 124 -268 86z"/>
<path d="M15990 5726 c0 -2 8 -10 18 -17 15 -13 16 -12 3 4 -13 16 -21 21 -21
13z"/>
<path d="M8455 5566 c-5 -3 -22 -7 -37 -10 -61 -14 -128 -99 -128 -163 0 -23
-8 -32 -45 -52 -62 -33 -166 -130 -206 -193 l-34 -53 0 -1222 0 -1223 -197 0
-198 0 0 944 0 944 38 19 c49 26 76 74 76 135 0 83 -61 142 -147 142 -96 0
-153 -63 -145 -161 5 -57 29 -92 81 -119 l27 -15 0 -944 0 -945 -445 0 -445 0
0 -386 0 -386 93 6 c50 3 156 9 235 12 l142 7 0 -812 0 -811 430 0 430 0 0
811 0 812 143 -7 c78 -3 184 -9 235 -12 l92 -6 0 386 0 386 -190 0 -190 0 0
1202 0 1202 21 43 c25 51 97 128 158 168 l43 29 39 -47 c65 -76 157 -93 251
-46 127 64 127 273 -1 339 -38 19 -106 33 -126 26z"/>
<path d="M17766 5522 c-3 -5 1 -9 9 -9 8 0 12 4 9 9 -3 4 -7 8 -9 8 -2 0 -6
-4 -9 -8z"/>
<path d="M15552 5460 c-56 -26 -91 -65 -99 -112 -5 -34 -12 -42 -52 -62 -68
-35 -151 -100 -193 -151 -30 -38 -38 -56 -43 -108 -4 -34 -5 -513 -3 -1064 l3
-1002 -25 -6 c-41 -11 -88 -44 -109 -79 -21 -34 -30 -129 -13 -140 5 -3 33 6
63 20 65 31 173 60 252 70 38 4 57 11 57 20 0 25 -74 92 -117 104 l-43 13 0
1042 0 1043 33 48 c21 31 63 69 110 101 l77 52 44 -43 c70 -71 171 -82 263
-30 53 31 88 97 80 155 -16 117 -164 184 -285 129z"/>
<path d="M9870 4973 c-105 -54 -108 -204 -5 -264 l35 -21 0 -1019 0 -1019
-433 0 -433 0 -364 -1047 c-200 -577 -385 -1110 -411 -1186 l-49 -137 456 0
c355 0 456 3 459 13 2 6 18 74 35 149 l32 138 324 0 323 0 15 -52 c9 -29 25
-92 36 -139 12 -47 25 -91 29 -97 6 -9 117 -12 458 -10 l451 3 -420 1180
c-231 649 -425 1182 -429 1183 -5 2 -9 456 -9 1022 l0 1019 36 17 c40 19 71
62 80 112 9 45 -20 116 -58 143 -42 30 -113 35 -158 12z m-314 -3243 c18 -101
108 -500 130 -572 5 -17 -7 -18 -165 -18 -133 0 -171 3 -171 13 0 7 34 168 75
357 41 189 75 346 75 348 0 2 8 2 17 0 13 -2 22 -30 39 -128z"/>
<path d="M17025 4660 c-3 -6 1 -7 9 -4 18 7 21 14 7 14 -6 0 -13 -4 -16 -10z"/>
<path d="M12839 4590 c-146 -79 -142 -288 6 -360 l45 -22 2 -1701 3 -1702 24
43 c14 23 28 42 33 42 4 0 8 7 8 15 0 9 6 15 14 13 8 -2 14 1 13 7 -1 5 -4 9
-7 8 -3 -1 -3 736 0 1638 l5 1639 45 22 c26 14 57 41 75 66 26 38 30 53 30
110 0 78 -19 118 -78 166 -34 27 -47 31 -110 33 -56 3 -80 -1 -108 -17z"/>
<path d="M13730 4509 c-56 -22 -102 -83 -114 -151 -5 -30 -15 -41 -51 -62 -63
-38 -158 -128 -197 -189 l-33 -52 -3 -1280 -2 -1280 35 53 35 54 0 1204 c0
1313 -4 1231 57 1310 26 35 148 134 164 134 4 0 17 -16 29 -35 30 -49 116 -89
175 -83 67 8 116 38 150 93 63 102 20 244 -88 284 -35 13 -123 13 -157 0z"/>
<path d="M17796 4392 c-3 -5 1 -9 9 -9 8 0 12 4 9 9 -3 4 -7 8 -9 8 -2 0 -6
-4 -9 -8z"/>
<path d="M17980 4316 c0 -2 8 -10 18 -17 15 -13 16 -12 3 4 -13 16 -21 21 -21
13z"/>
<path d="M18815 3740 c-3 -6 1 -7 9 -4 18 7 21 14 7 14 -6 0 -13 -4 -16 -10z"/>
<path d="M9095 3466 c-94 -42 -140 -166 -96 -261 70 -152 294 -151 357 2 30
71 9 178 -43 225 -50 45 -156 62 -218 34z"/>
<path d="M10352 3463 c-62 -30 -112 -109 -112 -178 0 -190 259 -267 361 -107
49 77 35 197 -28 254 -51 47 -159 62 -221 31z"/>
<path d="M11545 3451 c-78 -36 -115 -95 -115 -182 0 -111 79 -189 191 -189 92
0 159 46 187 129 56 162 -109 313 -263 242z"/>
<path d="M14638 3440 c-63 -34 -92 -82 -96 -161 -4 -60 -1 -74 22 -113 38 -65
86 -91 168 -91 58 0 72 4 109 30 56 40 84 94 84 165 0 65 -22 109 -78 154 -33
26 -48 31 -105 33 -52 3 -75 -1 -104 -17z"/>
<path d="M5000 2680 c-445 -62 -802 -299 -988 -657 -169 -325 -176 -766 -16
-1100 164 -344 494 -582 917 -660 127 -24 427 -24 554 0 533 99 907 444 1008
932 9 44 19 139 22 210 26 624 -372 1121 -1005 1255 -111 24 -385 35 -492 20z
m292 -781 c300 -63 438 -459 256 -734 -39 -58 -129 -127 -201 -152 -72 -25
-242 -25 -314 0 -159 56 -266 203 -280 388 -25 329 228 563 539 498z"/>
<path d="M1940 2264 l0 -386 93 6 c50 3 156 9 235 12 l142 7 0 -812 0 -811
430 0 430 0 0 811 0 812 143 -7 c78 -3 184 -9 235 -12 l92 -6 0 386 0 386
-900 0 -900 0 0 -386z"/>
<path d="M17003 2625 c0 -8 4 -12 9 -9 5 3 6 10 3 15 -9 13 -12 11 -12 -6z"/>
<path d="M17385 2631 c-3 -5 -2 -12 3 -15 5 -3 9 1 9 9 0 17 -3 19 -12 6z"/>
<path d="M16579 2593 c-13 -16 -12 -17 4 -4 16 13 21 21 13 21 -2 0 -10 -8
-17 -17z"/>
<path d="M13986 2512 c-3 -5 1 -9 9 -9 8 0 12 4 9 9 -3 4 -7 8 -9 8 -2 0 -6
-4 -9 -8z"/>
<path d="M14213 2458 l-21 -36 21 -6 c28 -7 29 -5 25 40 l-3 39 -22 -37z"/>
<path d="M16415 2300 c-3 -6 1 -7 9 -4 18 7 21 14 7 14 -6 0 -13 -4 -16 -10z"/>
<path d="M13779 1803 c-13 -16 -12 -17 4 -4 16 13 21 21 13 21 -2 0 -10 -8
-17 -17z"/>
<path d="M16837 1599 c7 -7 15 -10 18 -7 3 3 -2 9 -12 12 -14 6 -15 5 -6 -5z"/>
<path d="M13475 1351 c-3 -5 -2 -12 3 -15 5 -3 9 1 9 9 0 17 -3 19 -12 6z"/>
<path d="M19995 1230 c-4 -6 -11 -7 -17 -4 -7 4 -8 2 -4 -5 6 -9 11 -9 22 0
14 11 18 19 10 19 -3 0 -8 -5 -11 -10z"/>
<path d="M17935 1100 c-3 -6 1 -7 9 -4 18 7 21 14 7 14 -6 0 -13 -4 -16 -10z"/>
<path d="M13210 945 c0 -2 6 -8 13 -14 10 -8 14 -7 14 2 0 8 -6 14 -14 14 -7
0 -13 -1 -13 -2z"/>
<path d="M16243 925 c0 -8 4 -12 9 -9 5 3 6 10 3 15 -9 13 -12 11 -12 -6z"/>
<path d="M12726 498 c3 -5 10 -6 15 -3 13 9 11 12 -6 12 -8 0 -12 -4 -9 -9z"/>
<path d="M19555 500 c-3 -6 1 -7 9 -4 18 7 21 14 7 14 -6 0 -13 -4 -16 -10z"/>
<path d="M18837 399 c7 -7 15 -10 18 -7 3 3 -2 9 -12 12 -14 6 -15 5 -6 -5z"/>
</g>
</svg>
